# xmcd CD database file
#
# Track frame offsets:
#	150
#	38820
#	61773
#	91953
#	116334
#
# Disc length: 2132 seconds
#
# Revision: 0
# Processed by: cddbd v1.5.1PL2 Copyright (c) Steve Scherf et al.
# Submitted via: CDex 1.51
#
DISCID=33085205
DTITLE=Blue Punch - No More Blues
DYEAR=2005
DGENRE=Jazz
TTITLE0=Maiden Voyage - Take 1
TTITLE1=Rhythm Changes Medley
TTITLE2=Everything Must Change
TTITLE3=Chega de Saudade
TTITLE4=Maiden Voyage - Take 2
EXTD=YEAR: 2005
EXTT0=
EXTT1=
EXTT2=
EXTT3=
EXTT4=
PLAYORDER=
